<svg xmlns="http://www.w3.org/2000/svg" width="42" height="40" fill="none"><g fill="#fff" fill-rule="evenodd" clip-path="url(#a)" clip-rule="evenodd"><path d="M35.22 21.58c.31-.33.6-.66.87-1.01a9.3 9.3 0 0 1 5.77 8.6v10.75l-9.62.07h-8.52a9.55 9.55 0 0 1-9.43-9.66 11 11 0 0 1 1.2-4.93h10.83a12.3 12.3 0 0 0 8.9-3.82ZM23 32.05c.97 0 1.74-.79 1.74-1.74A1.73 1.73 0 1 0 23 32.05Zm4.96 0c.97 0 1.74-.79 1.74-1.74a1.73 1.73 0 0 0-3.46 0c0 .95.77 1.74 1.72 1.74Zm4.97 0c.97 0 1.74-.79 1.74-1.74a1.73 1.73 0 1 0-1.74 1.74Z"/><path d="M25.89 23.32c6.07 0 10.88-5.08 10.88-11.16C36.77 6.1 31.97 0 25.87 0H11.25C5.17 0 0 4.67 0 10.76V23.2l11.24.13H25.9ZM11.9 16.16c0 .45.23.85.55 1.08a8.28 8.28 0 0 0 4.9 1.56c2.83 0 4.8-1.46 4.8-4.07v-.03c0-2.29-1.48-3.24-4.14-3.93-2.27-.58-2.83-.85-2.83-1.72v-.03c0-.63.58-1.14 1.69-1.14.9 0 1.8.32 2.75.88.23.13.45.2.73.2a1.33 1.33 0 0 0 .71-2.46 7.61 7.61 0 0 0-4.15-1.16c-2.68 0-4.58 1.58-4.58 3.95v.04c0 2.6 1.7 3.32 4.34 4 2.2.56 2.64.93 2.64 1.67v.04c0 .77-.71 1.24-1.9 1.24a5.52 5.52 0 0 1-3.34-1.18 1.38 1.38 0 0 0-.82-.27c-.75 0-1.35.58-1.35 1.33Z"/></g><defs><clipPath id="a"><path fill="#fff" d="M0 0h41.87v40H0z"/></clipPath></defs></svg>
